HIERARCHY
ROOT Hips
{
	OFFSET 0.000000 0.000000 0.000000 
	CHANNELS 6 Xposition Yposition Zposition Zrotation Yrotation Xrotation
	JOINT LeftUpLeg
	{
		OFFSET 1.363060 -1.794630 0.839290 
		CHANNELS 3 Zrotation Yrotation Xrotation
		JOINT LeftLeg
		{
			OFFSET 2.448110 -6.726130 0.000000 
			CHANNELS 3 Zrotation Yrotation Xrotation
			JOINT LeftFoot
			{
				OFFSET 2.562200 -7.039590 0.000000 
				CHANNELS 3 Zrotation Yrotation Xrotation
				JOINT LeftToeBase
				{
					OFFSET 0.157640 -0.433110 2.322550 
					CHANNELS 3 Zrotation Yrotation Xrotation
					End Site
					{
						OFFSET 0.000000 0.000000 0.000000 
					}
				}
			}
		}
	}
	JOINT RightUpLeg
	{
		OFFSET -1.305520 -1.794630 0.839290 
		CHANNELS 3 Zrotation Yrotation Xrotation
		JOINT RightLeg
		{
			OFFSET -2.542530 -6.985550 0.000000 
			CHANNELS 3 Zrotation Yrotation Xrotation
			JOINT RightFoot
			{
				OFFSET -2.568260 -7.056230 0.000000 
				CHANNELS 3 Zrotation Yrotation Xrotation
				JOINT RightToeBase
				{
					OFFSET -0.164730 -0.452590 2.363150 
					CHANNELS 3 Zrotation Yrotation Xrotation
					End Site
					{
						OFFSET 0.000000 0.000000 0.000000 
					}
				}
			}
		}
	}
	JOINT Spine
	{
		OFFSET 0.028270 2.035590 -0.193380 
		CHANNELS 3 Zrotation Yrotation Xrotation
		JOINT Spine1
		{
			OFFSET 0.056720 2.048850 -0.042750 
			CHANNELS 3 Zrotation Yrotation Xrotation
			JOINT Neck1
			{
				OFFSET -0.054170 1.746240 0.172020 
				CHANNELS 3 Zrotation Yrotation Xrotation
				JOINT Head
				{
					OFFSET 0.104070 1.761360 -0.123970 
					CHANNELS 3 Zrotation Yrotation Xrotation
					End Site
					{
						OFFSET 0.000000 0.000000 0.000000 
					}
				}
			}
			JOINT LeftArm
			{
				OFFSET 3.362410 1.200890 -0.311210 
				CHANNELS 3 Zrotation Yrotation Xrotation
				JOINT LeftForeArm
				{
					OFFSET 4.983000 -0.000000 -0.000000 
					CHANNELS 3 Zrotation Yrotation Xrotation
					JOINT LeftHand
					{
						OFFSET 3.483560 -0.000000 -0.000000 
						CHANNELS 3 Zrotation Yrotation Xrotation
						JOINT LeftHandIndex1
						{
							OFFSET 0.715260 -0.000000 -0.000000 
							CHANNELS 3 Zrotation Yrotation Xrotation
							End Site
							{
								OFFSET 0.000000 0.000000 0.000000 
							}
						}
					}
				}
			}
			JOINT RightArm
			{
				OFFSET -3.136600 1.374050 -0.404650 
				CHANNELS 3 Zrotation Yrotation Xrotation
				JOINT RightForeArm
				{
					OFFSET -5.241900 -0.000000 -0.000000 
					CHANNELS 3 Zrotation Yrotation Xrotation
					JOINT RightHand
					{
						OFFSET -3.444170 -0.000000 -0.000000 
						CHANNELS 3 Zrotation Yrotation Xrotation
						JOINT RightHandIndex1
						{
							OFFSET -0.622530 -0.000000 -0.000000 
							CHANNELS 3 Zrotation Yrotation Xrotation
							End Site
							{
								OFFSET 0.000000 0.000000 0.000000 
							}
						}
					}
				}
			}
		}
	}
}
MOTION
Frames: 15
Frame Time: 0.041667
0.670834 17.951237 -0.622568 2.716778 -30.201713 5.111326 -21.563194 -2.072528 -7.829778 -0.748092 3.846886 14.164432 -0.859780 4.807565 -2.104424 0.456600 -4.334700 -12.020300 8.102081 8.478531 -14.654025 -0.795648 -7.622473 22.988985 0.870000 -6.475630 -8.574177 -0.015200 -0.795000 2.184900 1.135956 -1.386150 0.048081 5.622797 -0.482649 -0.550850 6.365147 2.086379 -9.273945 4.270600 1.179100 3.574700 -21.374617 -58.193387 5.357327 116.441230 -59.877665 -83.474788 0.542802 0.054834 -4.284934 -7.125000 0.000000 0.000000 67.727774 -4.070543 15.298616 -22.713805 31.179486 -7.559388 0.561276 -0.767499 14.549915 7.125000 0.000000 0.000000 
0.674831 17.953336 -0.634260 2.727986 -30.269312 5.167830 -21.557601 -2.197716 -7.852361 -0.761791 3.817746 14.070930 -0.893588 4.973458 -2.074037 0.430400 -4.210000 -11.668200 8.076117 8.573585 -14.742286 -0.792615 -7.620335 22.975318 0.874706 -6.492916 -8.550937 -0.023500 -0.990600 2.723000 1.136251 -1.354227 0.144551 5.631196 -0.476587 -0.425768 6.558979 2.081633 -9.015073 4.359900 1.179000 3.644000 -22.502457 -58.103764 6.448756 116.883602 -59.746583 -83.814839 0.537897 0.052204 -4.623659 -7.125000 0.000000 0.000000 67.703327 -3.969539 15.460171 -22.801494 31.258150 -7.599997 0.570465 -0.739346 14.266889 7.125000 0.000000 0.000000 
0.679628 17.956833 -0.643553 2.725730 -29.961451 5.173310 -21.499539 -2.344189 -7.830128 -0.772328 3.791401 13.991706 -0.867894 4.825625 -1.874511 0.395600 -4.038300 -11.184400 8.110179 8.418361 -14.730530 -0.788587 -7.612054 22.952798 0.901030 -6.639519 -8.648900 -0.031800 -1.151400 3.165600 1.149938 -1.486845 0.217756 5.623302 -0.549786 -0.357393 6.772797 2.044760 -8.795559 4.456400 1.162900 3.694300 -23.784802 -57.932729 7.709976 117.380188 -59.593250 -84.202000 0.533217 0.053848 -4.737702 -7.125000 0.000000 0.000000 67.667454 -3.940922 15.618052 -22.913828 31.371242 -7.662096 0.577999 -0.733442 14.053610 7.125000 0.000000 0.000000 
0.683725 17.956933 -0.644053 2.742440 -29.213005 4.933086 -21.443707 -2.588213 -7.523775 -0.772240 3.780967 13.978860 -0.799980 4.458913 -1.663974 0.402600 -4.073400 -11.283300 8.190672 8.011311 -14.375327 -0.783876 -7.592537 22.920563 0.929638 -6.854254 -9.017795 -0.031500 -1.145100 3.148300 1.105736 -1.749842 0.297168 5.496352 -0.680701 -0.395303 6.820302 1.930599 -8.487403 4.462900 1.099700 3.756900 -25.227357 -57.725857 9.328279 117.758376 -59.463301 -84.501082 0.538705 0.058703 -4.689566 -7.125000 0.000000 0.000000 67.777462 -4.067740 15.584039 -22.993018 31.452686 -7.708306 0.584263 -0.737992 14.108096 7.125000 0.000000 0.000000 
0.685824 17.958032 -0.650948 2.690548 -29.218916 4.955968 -21.392318 -2.536434 -7.582790 -0.769235 3.791428 14.003960 -0.792519 4.420395 -1.636210 0.414000 -4.130200 -11.443300 8.242880 8.059247 -14.345245 -0.772212 -7.567969 22.851806 0.939804 -6.899198 -9.006956 -0.021800 -0.953100 2.619700 1.095849 -1.703391 0.325870 5.474711 -0.656184 -0.386494 6.747366 1.926802 -8.168038 4.433700 1.087700 3.814600 -26.521442 -57.407910 10.837544 118.153875 -59.323043 -84.816454 0.542138 0.064374 -4.804124 -7.125000 0.000000 0.000000 67.836766 -4.185589 15.627984 -23.089506 31.550885 -7.761671 0.586337 -0.729415 14.055859 7.125000 0.000000 0.000000 
0.689921 17.959831 -0.660441 2.595935 -29.194139 5.016085 -21.291158 -2.550349 -7.670916 -0.765499 3.810906 14.047189 -0.789847 4.403704 -1.581079 0.407400 -4.097800 -11.351900 8.331826 8.032297 -14.368419 -0.763563 -7.548783 22.800679 0.933323 -6.865548 -8.991747 -0.022400 -0.965600 2.654200 1.123956 -1.701329 0.364387 5.485326 -0.653109 -0.386347 6.628294 1.955247 -7.741975 4.399200 1.089700 3.918200 -27.691207 -57.118466 12.152537 118.571645 -59.175694 -85.149437 0.539261 0.071803 -4.874003 -7.125000 0.000000 0.000000 67.830399 -4.197311 15.688543 -23.163788 31.625156 -7.802398 0.584243 -0.721632 13.895153 7.125000 0.000000 0.000000 
0.694718 17.962829 -0.669335 2.530639 -29.203181 5.067647 -21.228143 -2.646008 -7.749051 -0.757414 3.848808 14.140500 -0.805829 4.489461 -1.611436 0.409800 -4.109300 -11.384300 8.391115 7.986824 -14.420022 -0.756402 -7.533075 22.753428 0.949376 -6.918002 -8.884326 -0.019500 -0.902600 2.480900 1.115813 -1.661181 0.403299 5.443587 -0.630120 -0.388103 6.489690 1.930178 -7.336765 4.350600 1.064100 4.020300 -28.881009 -56.902210 13.535726 118.997144 -59.024184 -85.486229 0.538903 0.078444 -4.840688 -7.125000 0.000000 0.000000 67.902680 -4.140824 15.623263 -23.162471 31.617758 -7.799942 0.584539 -0.723723 13.978505 7.125000 0.000000 0.000000 
0.699514 17.964528 -0.678329 2.571889 -29.269784 5.099218 -21.266860 -2.786299 -7.834952 -0.748459 3.889878 14.245320 -0.829881 4.621247 -1.704219 0.404400 -4.082800 -11.309800 8.338342 7.970507 -14.524435 -0.749633 -7.520326 22.703442 0.960973 -6.937817 -8.725105 -0.016000 -0.816100 2.242900 1.080851 -1.645235 0.412263 5.416498 -0.619825 -0.386023 6.400106 1.952491 -7.091774 4.321600 1.064200 4.044800 -30.109072 -56.515408 14.926055 119.402678 -58.868283 -85.814810 0.537852 0.086957 -4.806868 -7.125000 0.000000 0.000000 67.974593 -4.156347 15.700063 -23.212279 31.665336 -7.826873 0.581170 -0.724234 14.086673 7.125000 0.000000 0.000000 
0.705710 17.966227 -0.689521 2.496949 -29.322264 5.151963 -21.183028 -2.834323 -7.934977 -0.741300 3.922860 14.325091 -0.837670 4.663848 -1.715747 0.389500 -4.007700 -11.098300 8.397825 8.044414 -14.560075 -0.741954 -7.504295 22.658412 0.973605 -6.982907 -8.658306 -0.015800 -0.812700 2.233500 1.074582 -1.627424 0.433214 5.364356 -0.607733 -0.409011 6.285943 1.963885 -6.884646 4.284100 1.058400 4.061800 -31.346049 -56.119037 16.217590 119.734833 -58.731130 -86.089803 0.540959 0.093254 -4.820256 -7.125000 0.000000 0.000000 68.040280 -4.202724 15.801263 -23.309860 31.764197 -7.882758 0.578180 -0.726658 14.083782 7.125000 0.000000 0.000000 
0.710807 17.967926 -0.700614 2.412738 -29.315597 5.189837 -21.103399 -2.739206 -8.059482 -0.733711 3.948195 14.388346 -0.822154 4.582599 -1.652997 0.415300 -4.136500 -11.461100 8.473367 8.108371 -14.556769 -0.734997 -7.489822 22.623179 0.972414 -6.986885 -8.705591 -0.022000 -0.957700 2.632500 1.109667 -1.532143 0.473244 5.345454 -0.558047 -0.418939 6.110370 1.872067 -6.663964 4.242200 0.996000 4.096200 -32.688401 -55.956721 17.583961 119.934087 -58.633069 -86.256759 0.549314 0.093599 -4.769296 -7.125000 0.000000 0.000000 68.003732 -4.270555 15.795640 -23.382102 31.837279 -7.925626 0.590960 -0.728571 14.054019 7.125000 0.000000 0.000000 
0.714504 17.969924 -0.708008 2.355797 -29.380183 5.240648 -21.056022 -2.710840 -8.161249 -0.727621 3.972733 14.447315 -0.827054 4.609441 -1.646186 0.423800 -4.178000 -11.577900 8.519790 8.109798 -14.603046 -0.726705 -7.471727 22.570881 0.971843 -6.970577 -8.641884 -0.027800 -1.076100 2.958300 1.139227 -1.395210 0.524427 5.326855 -0.494032 -0.358096 6.209029 1.774663 -6.530729 4.301300 0.941600 4.095600 -34.013475 -55.829180 18.986679 120.203155 -58.512313 -86.475321 0.552343 0.095442 -4.729548 -7.125000 0.000000 0.000000 67.981219 -4.339726 15.769035 -23.490492 31.945136 -7.987640 0.596569 -0.722062 13.930028 7.125000 0.000000 0.000000 
0.718401 17.971023 -0.714004 2.325385 -29.502968 5.333780 -21.040125 -2.731891 -8.268814 -0.728299 3.980219 14.456806 -0.849608 4.723440 -1.639343 0.416200 -4.141200 -11.474400 8.528693 8.075416 -14.746200 -0.720032 -7.458417 22.520598 0.979924 -6.962657 -8.419328 -0.030100 -1.120700 3.080900 1.068461 -1.376124 0.556005 5.223613 -0.487141 -0.280072 6.356859 1.826141 -6.275962 4.331500 0.968900 4.131400 -34.892487 -55.348717 20.090450 120.717942 -58.320247 -86.888795 0.546725 0.108116 -4.882433 -7.125000 0.000000 0.000000 68.149667 -4.288416 15.881901 -23.543869 31.993594 -8.014602 0.579050 -0.720560 13.898264 7.125000 0.000000 0.000000 
0.722998 17.973422 -0.720500 2.281811 -29.524307 5.395242 -21.011592 -2.756837 -8.320216 -0.730068 3.980500 14.450748 -0.863118 4.789144 -1.613945 0.429400 -4.205300 -11.655100 8.556024 8.072618 -14.793221 -0.711836 -7.442792 22.470510 0.991154 -7.004307 -8.361532 -0.038600 -1.268400 3.487600 0.991416 -1.394096 0.599526 5.096316 -0.496253 -0.221474 6.362318 1.835185 -5.955647 4.305200 0.969800 4.202300 -35.715689 -54.936224 21.112448 121.157343 -58.151206 -87.243758 0.538332 0.122383 -5.097819 -7.125000 0.000000 0.000000 68.344016 -4.213655 15.934334 -23.578245 32.020644 -8.030964 0.573306 -0.722706 13.968196 7.125000 0.000000 0.000000 
0.726695 17.974621 -0.726695 2.299852 -29.461038 5.404933 -21.025854 -2.838464 -8.310224 -0.733356 3.974348 14.433074 -0.859779 4.773576 -1.622311 0.420900 -4.164100 -11.538700 8.532465 8.027916 -14.812670 -0.706516 -7.432922 22.437325 0.985798 -6.984515 -8.389855 -0.050200 -1.446000 3.976800 0.948934 -1.425559 0.653914 5.019421 -0.515160 -0.145039 6.472915 1.808291 -5.560732 4.347900 0.952300 4.297100 -36.658986 -54.597590 22.186777 121.480789 -58.014881 -87.509693 0.536115 0.134469 -5.025369 -7.125000 0.000000 0.000000 68.430943 -4.139151 15.950805 -23.602677 32.038057 -8.041947 0.573646 -0.721282 14.088019 7.125000 0.000000 0.000000 
0.729693 17.975620 -0.735989 2.245492 -29.371424 5.448040 -20.953317 -2.955474 -8.318263 -0.736786 3.972782 14.420625 -0.868131 4.811987 -1.585087 0.414800 -4.134200 -11.454500 8.592524 8.014694 -14.829682 -0.700918 -7.422342 22.407809 0.995856 -7.038410 -8.417470 -0.037200 -1.245800 3.425200 0.928991 -1.468990 0.698027 4.955390 -0.536795 -0.089555 6.443024 1.808997 -5.148983 4.333800 0.942900 4.388300 -37.682062 -54.178818 23.325883 121.708939 -57.903208 -87.702428 0.541117 0.140716 -4.662702 -7.125000 0.000000 0.000000 68.549250 -4.089439 15.990931 -23.639658 32.068792 -8.061068 0.576253 -0.724400 14.119196 7.125000 0.000000 0.000000 
